<svg width="92" height="23" viewBox="0 0 92 23" fill="none" xmlns="http://www.w3.org/2000/svg">
<path d="M13.15 6.1H18.7L12.7 22H6.7L0.7 6.1H6.25L9.7 16.9L13.15 6.1ZM26.5023 6.7V22H21.2523V10.75H19.0023V6.7H26.5023ZM21.2523 0.699999H26.5023V4.9H21.2523V0.699999ZM28.9117 17.8C32.9717 18.1 36.1717 18.25 38.5117 18.25C38.8117 18.25 39.0617 18.15 39.2617 17.95C39.4617 17.75 39.5617 17.5 39.5617 17.2V16.15H33.1117C31.7517 16.15 30.6617 15.74 29.8417 14.92C29.0217 14.1 28.6117 13.01 28.6117 11.65V10.6C28.6117 9.24 29.0217 8.15 29.8417 7.33C30.6617 6.51 31.7517 6.1 33.1117 6.1H43.3117V10H34.9117C34.6117 10 34.3617 10.1 34.1617 10.3C33.9617 10.5 33.8617 10.75 33.8617 11.05C33.8617 11.35 33.9617 11.6 34.1617 11.8C34.3617 12 34.6117 12.1 34.9117 12.1H40.3117C41.6717 12.1 42.7617 12.51 43.5817 13.33C44.4017 14.15 44.8117 15.24 44.8117 16.6V17.8C44.8117 19.16 44.4017 20.25 43.5817 21.07C42.7617 21.89 41.6717 22.3 40.3117 22.3C36.7717 22.3 32.9717 22.1 28.9117 21.7V17.8ZM53.2211 6.7V22H47.9711V10.75H45.7211V6.7H53.2211ZM47.9711 0.699999H53.2211V4.9H47.9711V0.699999ZM72.4305 17.5C72.4305 19 72.0005 20.18 71.1405 21.04C70.3005 21.88 69.1305 22.3 67.6305 22.3H60.7305C59.2305 22.3 58.0505 21.88 57.1905 21.04C56.3505 20.18 55.9305 19 55.9305 17.5V10.6C55.9305 9.1 56.3505 7.93 57.1905 7.09C58.0505 6.23 59.2305 5.8 60.7305 5.8H67.6305C69.1305 5.8 70.3005 6.23 71.1405 7.09C72.0005 7.93 72.4305 9.1 72.4305 10.6V17.5ZM67.1805 11.05C67.1805 10.25 66.7805 9.85 65.9805 9.85H62.3805C61.5805 9.85 61.1805 10.25 61.1805 11.05V17.05C61.1805 17.85 61.5805 18.25 62.3805 18.25H65.9805C66.7805 18.25 67.1805 17.85 67.1805 17.05V11.05ZM83.977 10.15C82.917 10.15 81.717 10.35 80.377 10.75V22H75.127V6.1H79.777L80.077 7.6C81.017 6.98 81.977 6.53 82.957 6.25C83.957 5.95 84.797 5.8 85.477 5.8H86.827C88.187 5.8 89.277 6.21 90.097 7.03C90.917 7.85 91.327 8.94 91.327 10.3V22H86.077V11.2C86.077 10.9 85.977 10.65 85.777 10.45C85.577 10.25 85.327 10.15 85.027 10.15H83.977Z" fill="url(#paint0_linear)"/>
<defs>
<linearGradient id="paint0_linear" x1="25" y1="12" x2="93" y2="12" gradientUnits="userSpaceOnUse">
<stop stop-color="#A91DFF"/>
<stop offset="1" stop-color="#DF1DFF"/>
</linearGradient>
</defs>
</svg>
